<svg width="39" height="39" viewBox="0 0 39 39" fill="none" xmlns="http://www.w3.org/2000/svg">
<g filter="url(#filter0_d_3150_1308)">
<path d="M12.701 20.3417C12.5259 20.0938 12.4323 19.7976 12.433 19.494C12.4338 19.1905 12.5289 18.8948 12.7052 18.6477C12.8882 18.3973 13.1415 18.2073 13.4342 18.1032L15.3663 17.4743C15.8505 17.3129 16.2907 17.0411 16.6519 16.6805C17.0131 16.3198 17.2855 15.8802 17.4475 15.3962L18.0808 13.4391C18.1855 13.1497 18.3785 12.9005 18.6324 12.7266C18.8863 12.5527 19.1884 12.4628 19.4961 12.4697C19.8038 12.4765 20.1017 12.5797 20.3476 12.7647C20.5935 12.9497 20.7752 13.2072 20.867 13.501L21.4975 15.4356C21.6587 15.92 21.9304 16.3604 22.2911 16.7218C22.6519 17.0832 23.0917 17.3557 23.5759 17.5179L25.5291 18.1539C25.8169 18.2563 26.0656 18.4458 26.2406 18.6961C26.4156 18.9464 26.5082 19.245 26.5056 19.5504C26.5029 19.8557 26.4052 20.1527 26.2259 20.4C26.0466 20.6472 25.7947 20.8324 25.5052 20.9298L23.5351 21.5728C23.0639 21.7342 22.6354 22.0004 22.282 22.3514C21.9285 22.7023 21.6594 23.1289 21.4947 23.5989L20.8656 25.5546C20.763 25.8422 20.5733 26.0907 20.323 26.2656C20.0727 26.4405 19.7741 26.5332 19.4687 26.5307C19.1633 26.5282 18.8663 26.4308 18.6188 26.2518C18.3714 26.0728 18.1858 25.8213 18.0878 25.5321L17.4616 23.5989C17.3 23.112 17.0263 22.6698 16.6627 22.3079C16.299 21.9459 15.8554 21.6744 15.3677 21.5151L13.4102 20.8792C13.1232 20.7779 12.8755 20.5894 12.701 20.3417Z" fill="#9547A5"/>
</g>
<defs>
<filter id="filter0_d_3150_1308" x="0.433105" y="0.469238" width="38.0725" height="38.0615" filterUnits="userSpaceOnUse" color-interpolation-filters="sRGB">
<feFlood flood-opacity="0" result="BackgroundImageFix"/>
<feColorMatrix in="SourceAlpha" type="matrix" values="0 0 0 0 0 0 0 0 0 0 0 0 0 0 0 0 0 0 127 0" result="hardAlpha"/>
<feOffset/>
<feGaussianBlur stdDeviation="6"/>
<feComposite in2="hardAlpha" operator="out"/>
<feColorMatrix type="matrix" values="0 0 0 0 0.532812 0 0 0 0 0.184062 0 0 0 0 0.590937 0 0 0 0.35 0"/>
<feBlend mode="normal" in2="BackgroundImageFix" result="effect1_dropShadow_3150_1308"/>
<feBlend mode="normal" in="SourceGraphic" in2="effect1_dropShadow_3150_1308" result="shape"/>
</filter>
</defs>
</svg>
