<svg width="39" height="39" viewBox="0 0 39 39" fill="none" xmlns="http://www.w3.org/2000/svg">
<g filter="url(#filter0_d_3150_1278)">
<path d="M12.7409 19.7881C12.602 19.5182 12.5505 19.2118 12.5935 18.9114C12.6365 18.6109 12.7718 18.3313 12.9808 18.1112C13.1969 17.8886 13.4741 17.7358 13.7785 17.6734L15.7793 17.3195C16.2813 17.2271 16.755 17.0192 17.1628 16.7124C17.5707 16.4055 17.9017 16.008 18.1295 15.5513L19.029 13.7013C19.173 13.4294 19.3987 13.2095 19.6744 13.0726C19.95 12.9357 20.2617 12.8887 20.5655 12.9383C20.8692 12.9879 21.1498 13.1316 21.3676 13.349C21.5854 13.5665 21.7295 13.8468 21.7795 14.1504L22.1345 16.1539C22.2268 16.6561 22.4346 17.13 22.7415 17.5381C23.0484 17.9461 23.446 18.2773 23.903 18.5053L25.7486 19.4069C26.0194 19.5483 26.2392 19.7706 26.3777 20.0428C26.5162 20.315 26.5663 20.6236 26.5212 20.9257C26.4761 21.2277 26.338 21.5082 26.126 21.7281C25.9141 21.9479 25.6388 22.0963 25.3386 22.1525L23.2982 22.515C22.8091 22.6093 22.3478 22.8133 21.9489 23.1116C21.5501 23.41 21.2242 23.7949 20.9956 24.2374L20.1006 26.0865C19.9589 26.357 19.7365 26.5767 19.4643 26.7151C19.192 26.8535 18.8835 26.9037 18.5814 26.8587C18.2793 26.8138 17.9987 26.6759 17.7786 26.4643C17.5584 26.2526 17.4097 25.9777 17.3529 25.6776L17.0018 23.6761C16.9096 23.1714 16.7001 22.6955 16.3904 22.2865C16.0806 21.8775 15.6791 21.5468 15.2183 21.3212L13.3684 20.419C13.0983 20.2788 12.8792 20.0576 12.7409 19.7881Z" fill="#358BB9"/>
</g>
<defs>
<filter id="filter0_d_3150_1278" x="0.578613" y="0.919189" width="37.9587" height="37.9556" filterUnits="userSpaceOnUse" color-interpolation-filters="sRGB">
<feFlood flood-opacity="0" result="BackgroundImageFix"/>
<feColorMatrix in="SourceAlpha" type="matrix" values="0 0 0 0 0 0 0 0 0 0 0 0 0 0 0 0 0 0 127 0" result="hardAlpha"/>
<feOffset/>
<feGaussianBlur stdDeviation="6"/>
<feComposite in2="hardAlpha" operator="out"/>
<feColorMatrix type="matrix" values="0 0 0 0 0.532812 0 0 0 0 0.184062 0 0 0 0 0.590937 0 0 0 0.35 0"/>
<feBlend mode="normal" in2="BackgroundImageFix" result="effect1_dropShadow_3150_1278"/>
<feBlend mode="normal" in="SourceGraphic" in2="effect1_dropShadow_3150_1278" result="shape"/>
</filter>
</defs>
</svg>
